<?xml version="1.0" encoding="UTF-8"?>
<svg id="_图层_2" data-name="图层 2" xmlns="http://www.w3.org/2000/svg" viewBox="0 0 412.25 412.25">
  <g id="_图层_1-2" data-name="图层 1">
    <path d="M206.12,0C92.47,0,0,92.47,0,206.12s92.47,206.12,206.12,206.12,206.12-92.47,206.12-206.12S319.78,0,206.12,0ZM379.24,231.56c-10.48-5.62-22.9-9.26-37.25-10.91-3.87-.37-6.37-.94-7.52-1.69-1.15-.75-1.72-2.06-1.72-3.93,0-4.5,2.49-6.75,7.47-6.75h44.43c3.07,0,5.59-1.04,7.58-3.09,0,.31.01.62.01.92,0,11.17-.99,22.12-2.89,32.75-3-2.9-6.37-5.34-10.11-7.31ZM298.41,254.07c.93.59,1.91,1.01,2.93,1.27,1.34.34,5.39,1.14,12.14,2.42,7.99,1.5,14.58,4.05,19.76,7.65,5.37,3.75,8.06,8.4,8.06,13.94,0,4.5-1.71,8.11-5.11,10.85-3.41,2.74-7.9,4.1-13.47,4.1-2.29,0-5.36-.37-9.19-1.12-2.3-.45-9.31-3.01-15.12-5.18v-33.92ZM388.51,168.94h-64.01c-4,0-6.82,1.03-8.45,3.09-1.64,2.06-4,7.55-7.08,16.47-3.87,10.94-7.31,22.34-10.32,34.18-.08.31-.15.61-.23.92V46.76c0-.77-.04-1.52-.09-2.27,45.74,26.19,79.35,71.23,90.19,124.45ZM206.12,20c15.47,0,30.5,1.91,44.88,5.48v180.78c-13.79-18.46-35.8-30.42-60.56-30.42-36.07,0-66.31,25.42-73.78,59.28v-94.81h90.66c20.25,0,36.82-16.57,36.82-36.82h0c0-5.82-4.76-10.59-10.59-10.59H58.51C92.56,48.6,146.06,20,206.12,20ZM236,251.4c0,25.12-20.44,45.56-45.56,45.56s-45.56-20.44-45.56-45.56,20.44-45.56,45.56-45.56,45.56,20.44,45.56,45.56ZM20,206.12c0-23.42,4.36-45.84,12.29-66.5,1.15.44,2.39.69,3.68.69h33.28v191.8c-30.56-33.17-49.25-77.44-49.25-125.99ZM206.12,392.25c-32.4,0-62.9-8.33-89.46-22.95v-101.61c7.47,33.86,37.7,59.28,73.78,59.28,27.17,0,51.03-14.42,64.35-36,5.48,12.81,16.45,22.77,29.92,26.87,0,0,.01,0,.02,0,7.86,2.85,25.78,3.86,35.41,3.86,8.85,0,23.86-1.9,35.24-4.5-33.96,45.52-88.23,75.05-149.26,75.05Z"/>
  </g>
</svg>